<svg viewBox="0 0 129 40" xmlns="http://www.w3.org/2000/svg"><path d="M122.286 39.9155C125.895 39.9155 128.5 38.3207 128.5 35.5168C128.5 30.6036 120.481 32.3271 120.481 30.3979C120.481 29.9091 120.996 29.4204 122.157 29.4204C123.497 29.4204 124.245 30.0892 124.013 31.1438H128.035C128.474 27.9284 125.715 26.2307 122.131 26.2307C118.547 26.2307 116.226 27.8255 116.226 30.5522C116.226 35.5683 124.245 33.9734 124.245 35.7483C124.245 36.3142 123.42 36.7515 122.26 36.7515C120.893 36.7515 120.068 36.1599 120.068 35.2339H116.072C116.072 38.0634 118.444 39.9155 122.286 39.9155ZM111.405 26.2307C109.651 26.2307 108.336 27.1824 107.718 28.7516V26.6422H103.592V39.504H107.718V33.1245C107.718 31.0409 108.568 29.7033 109.703 29.7033C110.502 29.7033 110.992 30.3464 110.992 31.3239C110.992 32.0956 110.683 32.9188 110.167 33.8705H114.421C114.911 32.8673 115.195 31.684 115.195 30.5265C115.195 27.877 113.674 26.2307 111.405 26.2307ZM95.2381 36.4429C93.5879 36.4429 92.4792 35.1052 92.4792 33.0731C92.4792 31.0409 93.5879 29.7033 95.2381 29.7033C96.8883 29.7033 97.997 31.0152 97.997 33.0731C97.997 35.131 96.8883 36.4429 95.2381 36.4429ZM95.2381 39.9155C99.4409 39.9155 102.251 37.1888 102.251 33.0731C102.251 28.9573 99.4409 26.2307 95.2381 26.2307C91.0353 26.2307 88.2248 28.9573 88.2248 33.0731C88.2248 37.1888 91.0353 39.9155 95.2381 39.9155ZM83.4805 30.0892H87.2192V26.6165H83.4805V23.041H79.355V26.6165H76.6993V30.0892H79.355V35.0281C79.355 36.9316 79.8192 39.9155 84.1509 39.9155C85.3628 39.9155 86.291 39.684 86.9356 39.2724V35.7483C86.2394 36.1856 85.7495 36.4429 84.976 36.4429C83.7899 36.4429 83.4805 35.8255 83.4805 35.0281V30.0892ZM68.6804 36.9059C67.778 36.9059 67.2107 36.5458 67.2107 35.7998C67.2107 35.0538 67.8038 34.5393 69.5313 34.5393C70.1759 34.5393 71.0783 34.6165 71.8519 34.848C71.2073 36.1085 70.047 36.9059 68.6804 36.9059ZM69.6602 26.2307C66.1794 26.2307 63.3689 27.9284 64.0393 30.9638H68.0874C67.9585 30.1149 68.5515 29.6519 69.6087 29.6519C71.1815 29.6519 71.7487 30.6808 71.7745 32.1213C71.001 31.9927 70.0728 31.8898 69.1445 31.8898C65.4574 31.8898 63.1368 33.4332 63.1368 36.057C63.1368 38.2178 64.7097 39.9155 67.6233 39.9155C69.7634 39.9155 71.3362 39.0152 72.2902 37.3175V39.504H75.9V32.2499C75.9 28.5458 73.7857 26.2307 69.6602 26.2307ZM55.2211 39.9155C58.8051 39.9155 61.3577 37.9605 61.925 35.2339H57.4643C57.1291 35.8769 56.3556 36.4429 55.2727 36.4429C53.5967 36.4429 52.4622 35.131 52.4622 33.0474C52.4622 30.9638 53.5451 29.7033 55.2985 29.7033C57.0518 29.7033 57.9027 30.9638 57.619 32.9702H61.6156C62.4664 29.1374 59.5528 26.2307 55.2727 26.2307C50.9925 26.2307 48.2078 28.9316 48.2078 33.0731C48.2078 37.2146 51.0183 39.9155 55.2211 39.9155ZM46.9444 26.6422H42.8189V33.0216C42.8189 35.1052 41.9165 36.4943 40.4468 36.4943C39.106 36.4943 38.7451 35.2853 38.7451 33.7676V26.6422H34.6196V33.7676C34.6196 36.0313 35.1353 39.8126 38.7708 39.8126C40.5242 39.8126 41.9939 38.938 42.8189 37.5747V39.504H46.9444V26.6422ZM25.8788 36.4429C24.0739 36.4429 22.862 35.1052 22.862 33.0731C22.862 31.0409 24.0739 29.7033 25.8788 29.7033C27.6837 29.7033 28.8955 31.0409 28.8955 33.0731C28.8955 35.1052 27.6837 36.4429 25.8788 36.4429ZM32.7889 21.4976H28.6635V28.1856C27.6837 26.9509 26.2655 26.2307 24.5122 26.2307C21.0571 26.2307 18.6077 28.9573 18.6077 33.0731C18.6077 37.1888 21.0829 39.9155 24.538 39.9155C26.2913 39.9155 27.7094 39.221 28.6635 37.9863V39.504H32.7889V21.4976ZM50.7089 4.98311C48.7493 4.98311 47.3312 5.9606 46.7123 7.52973V0.25H42.5869V18.2564H46.7123V11.877C46.7123 9.74195 47.7179 8.30143 49.1103 8.30143C50.1932 8.30143 50.8378 9.17603 50.8378 10.5136V18.2564H54.9633V10.5136C54.9633 6.96381 53.4936 4.98311 50.7089 4.98311ZM34.4133 18.668C37.9973 18.668 40.5499 16.713 41.1172 13.9863H36.6565C36.3213 14.6294 35.5478 15.1953 34.4649 15.1953C32.7889 15.1953 31.6544 13.8834 31.6544 11.7998C31.6544 9.71622 32.7374 8.45577 34.4907 8.45577C36.244 8.45577 37.0949 9.71622 36.8112 11.7226H40.8078C41.6587 7.88986 38.7451 4.98311 34.4649 4.98311C30.1847 4.98311 27.4 7.68407 27.4 11.8255C27.4 15.967 30.2105 18.668 34.4133 18.668ZM19.407 8.22426C20.954 8.22426 21.908 9.17603 21.7791 10.4108H16.6738C17.009 9.02169 18.0404 8.22426 19.407 8.22426ZM26.2398 13.9863H21.7791C21.3923 14.7837 20.6188 15.1953 19.5359 15.1953C17.9115 15.1953 16.8801 14.295 16.6223 12.7259H25.6467C27.1422 8.61012 24.2286 4.98311 19.407 4.98311C15.2299 4.98311 12.4195 7.70979 12.4195 11.8255C12.4195 15.9413 15.1784 18.668 19.4327 18.668C22.9652 18.668 25.4662 16.8159 26.2398 13.9863ZM17.6279 36.0313H9.89262V31.7612H16.0035V28.2885H9.89262V24.9702H17.37V21.4976H5.50932V39.504H17.6279V36.0313ZM14.4306 3.72266V0.25H0.971313V3.72266H5.50932V18.2564H9.89262V3.72266H14.4306Z" fill="currentColor"/></svg>