<svg viewBox="0 0 40 40" xmlns="http://www.w3.org/2000/svg"><path d="M17.4034 12.6608L14.4107 17.904C14.3142 18.0497 14.3625 18.2439 14.459 18.341L18.417 22.3219V19.2148C13.6384 23.5356 8.28069 28.9245 2.53678 35.1387C2.29544 35.43 2.29544 35.7213 2.53678 35.964L6.30169 39.7993C6.54304 40.0421 6.88091 40.0906 7.12225 39.7993C12.8662 33.2939 18.9479 27.1768 25.5124 21.3024C25.8986 20.9626 25.8503 20.5256 25.5124 20.1858L17.9826 12.6123C17.7895 12.4181 17.5482 12.4181 17.4034 12.6608ZM10.2597 4.79598C8.47376 2.8055 7.26706 1.59179 5.62594 0.135341C5.43287 -0.0588525 5.19153 -0.0588525 4.90192 0.232437L1.08874 4.01921C0.847396 4.26195 0.799128 4.60179 1.08874 4.84453C3.2608 6.88356 4.90192 8.5342 6.88091 10.7189C7.07398 10.9131 7.31532 10.9131 7.46013 10.6218L10.3079 5.23292C10.3562 5.08727 10.3562 4.94163 10.2597 4.79598Z" fill="currentColor"/><path d="M23.2224 3.98987L19.4202 0.200796C19.1795 -0.0420933 18.8426 -0.0906711 18.602 0.200796C13.2596 6.41876 7.19534 12.5881 0.312841 18.6604C-0.120323 19.0004 -0.072194 19.4376 0.264711 19.7777L7.82102 27.453C8.01354 27.6473 8.20605 27.6473 8.35044 27.4044L11.4789 22.2066C11.5751 22.0608 11.527 21.8665 11.4307 21.7694L7.43599 17.6402L7.38786 20.7492C12.0564 16.7173 17.495 11.0822 23.2224 4.81569C23.4631 4.52422 23.5112 4.28133 23.2224 3.98987ZM18.3132 29.3475L15.0886 34.4482C14.9923 34.5939 14.9923 34.6911 15.0886 34.8368C16.6287 36.7313 18.0726 38.2858 19.9015 39.8403C20.1903 40.0832 20.479 40.0346 20.7197 39.7917L24.4738 35.9541C24.7144 35.7112 24.7626 35.3712 24.4738 35.1283C22.2598 33.1852 20.6716 31.4849 18.8426 29.2989C18.6501 29.1046 18.4576 29.1046 18.3132 29.3475Z" class="fill-primary"/></svg>